<?xml version="1.0" encoding="UTF-8"?><svg id="Layer_2" xmlns="http://www.w3.org/2000/svg" viewBox="0 0 12.64 22.5"><defs><style>.cls-1,.cls-2{opacity:.8;}.cls-1,.cls-3{fill:#fff;stroke-width:0px;}</style></defs><g id="Layer_1-2"><g id="_Grid_Repeat_" class="cls-2"><circle class="cls-3" cx="1.2" cy="5.8" r="1.11"/></g><g id="_Grid_Repeat_-2" class="cls-2"><circle class="cls-3" cx="4.72" cy="4.15" r=".95"/></g><g id="_Grid_Repeat_-3"><circle class="cls-1" cx="1.11" cy="9.28" r="1.11"/></g><g id="_Grid_Repeat_-4" class="cls-2"><circle class="cls-3" cx="4.63" cy="7.63" r="1.27"/></g><g id="_Grid_Repeat_-5" class="cls-2"><circle class="cls-3" cx="8.07" cy="9.46" r="1.27"/></g><g id="_Grid_Repeat_-6" class="cls-2"><circle class="cls-3" cx="11.59" cy="7.8" r=".95"/></g><g id="_Grid_Repeat_-7"><circle class="cls-3" cx="4.54" cy="11.11" r="1.27"/></g><g id="_Grid_Repeat_-8" class="cls-2"><circle class="cls-3" cx="7.98" cy="12.94" r="1.27"/></g><g id="_Grid_Repeat_-9" class="cls-2"><circle class="cls-3" cx="11.5" cy="11.28" r=".95"/></g><g id="_Grid_Repeat_-10"><circle class="cls-3" cx="4.46" cy="14.59" r="1.42"/></g><g id="_Grid_Repeat_-11" class="cls-2"><circle class="cls-3" cx="7.89" cy="16.42" r=".95"/></g><g id="_Grid_Repeat_-12"><circle class="cls-3" cx="4.37" cy="18.07" r="1.42"/></g><g id="_Grid_Repeat_-13"><circle class="cls-3" cx="4.28" cy="21.55" r=".95"/></g><g id="_Grid_Repeat_-14" class="cls-2"><circle class="cls-3" cx="8.15" cy="5.98" r=".95"/></g><path class="cls-3" d="M8.2,4.03c.2,0,.4.04.59.11.15.05.28.13.4.22.72-1.25,1.98-2.11,3.45-1.91C12.64,2.44,12.53,0,12.53,0c-2.24.22-3.96,1.99-4.52,4.04.06,0,.13-.02.19-.01Z"/></g></svg>