<?xml version="1.0" encoding="UTF-8"?><svg id="Layer_2" xmlns="http://www.w3.org/2000/svg" viewBox="0 0 185.84 37.41"><defs><style>.cls-1,.cls-2,.cls-3,.cls-4{stroke-width:0px;}.cls-1,.cls-5{opacity:.8;}.cls-1,.cls-4{fill:#fff;}.cls-2{fill:#321518;}.cls-3{fill:#de2a3e;}</style></defs><g id="Layer_1-2"><rect class="cls-4" x="1.5" y="1.5" width="182.84" height="34.41"/><path class="cls-4" d="M182.84,3v31.41H3V3h179.84M185.84,0H0v37.41h185.84V0h0Z"/><rect class="cls-3" x="3" y="3" width="31.5" height="31.5"/><g id="_Grid_Repeat_" class="cls-5"><circle class="cls-4" cx="13.55" cy="13.98" r="1.11"/></g><g id="_Grid_Repeat_-2" class="cls-5"><circle class="cls-4" cx="17.07" cy="12.33" r=".95"/></g><g id="_Grid_Repeat_-3"><circle class="cls-1" cx="13.46" cy="17.46" r="1.11"/></g><g id="_Grid_Repeat_-4" class="cls-5"><circle class="cls-4" cx="16.99" cy="15.81" r="1.27"/></g><g id="_Grid_Repeat_-5" class="cls-5"><circle class="cls-4" cx="20.42" cy="17.64" r="1.27"/></g><g id="_Grid_Repeat_-6" class="cls-5"><circle class="cls-4" cx="23.94" cy="15.99" r=".95"/></g><g id="_Grid_Repeat_-7"><circle class="cls-4" cx="16.9" cy="19.29" r="1.27"/></g><g id="_Grid_Repeat_-8" class="cls-5"><circle class="cls-4" cx="20.33" cy="21.12" r="1.27"/></g><g id="_Grid_Repeat_-9" class="cls-5"><circle class="cls-4" cx="23.86" cy="19.46" r=".95"/></g><g id="_Grid_Repeat_-10"><circle class="cls-4" cx="16.81" cy="22.77" r="1.42"/></g><g id="_Grid_Repeat_-11" class="cls-5"><circle class="cls-4" cx="20.25" cy="24.6" r=".95"/></g><g id="_Grid_Repeat_-12"><circle class="cls-4" cx="16.72" cy="26.25" r="1.42"/></g><g id="_Grid_Repeat_-13"><circle class="cls-4" cx="16.63" cy="29.73" r=".95"/></g><g id="_Grid_Repeat_-14" class="cls-5"><circle class="cls-4" cx="20.51" cy="14.16" r=".95"/></g><path class="cls-4" d="M20.56,12.21c.2,0,.4.04.59.11.15.05.28.13.4.22.72-1.25,1.98-2.11,3.45-1.91,0,0-.11-2.44-.11-2.44-2.24.22-3.96,1.99-4.52,4.04.06,0,.13-.02.19-.01Z"/><rect class="cls-2" x="37.66" y="3" width="123.26" height="31.5" transform="translate(198.57 37.5) rotate(180)"/><path class="cls-4" d="M44.71,9.91h7.59c3.72,0,5.9,2.75,5.9,5.81,0,3.39-2.54,5.81-5.9,5.81h-3.18v6.53h-4.42V9.91ZM51.88,17.72c1.15,0,1.78-1.06,1.78-2.12,0-1-.6-1.91-1.78-1.91h-2.75v4.02h2.75Z"/><path class="cls-4" d="M60.2,9.91h4.45v18.15h-4.45V9.91Z"/><path class="cls-4" d="M71.54,22.74c0,1.06.85,1.91,1.88,1.91,1.12,0,1.81-.64,1.81-1.57,0-1.36-1.78-1.75-3.27-2.27-3.05-1.09-4.75-2.51-4.75-5.62s2.75-5.87,6.17-5.87c4.02,0,5.93,2.57,6.17,5.93h-4.17c0-1.03-.63-1.88-1.88-1.88-.97,0-1.91.57-1.91,1.75,0,1.36,1.66,1.6,3.21,2.06,3.24.97,4.75,2.78,4.75,5.63,0,3.21-2.72,5.87-6.14,5.87-3.96,0-6.2-2.66-6.2-5.93h4.32Z"/><path class="cls-4" d="M91.71,9.31c3.45,0,5.84,1.3,7.77,3.33l-3.05,2.9c-1.27-1.24-2.9-2.03-4.72-2.03-3.24,0-5.32,2.42-5.32,5.47s2.09,5.47,5.32,5.47c1.82,0,3.45-.79,4.72-2.03l2.96,2.9c-1.81,1.91-4.32,3.33-7.68,3.33-5.75,0-9.83-4.26-9.83-9.68s4.08-9.68,9.83-9.68Z"/><path class="cls-4" d="M110.43,9.31c5.72,0,9.77,4.26,9.77,9.68s-4.05,9.68-9.77,9.68-9.77-4.26-9.77-9.68,4.02-9.68,9.77-9.68ZM110.43,24.46c3.21,0,5.26-2.42,5.26-5.47s-2.06-5.47-5.26-5.47-5.26,2.42-5.26,5.47,2.03,5.47,5.26,5.47Z"/><path class="cls-4" d="M122.44,9.91h4.45v14.33h7.89v3.81h-12.34V9.91Z"/><path class="cls-4" d="M145.76,9.31h.79l8.89,18.75h-4.78l-.91-1.88h-7.17l-.88,1.88h-4.78l8.83-18.75ZM148.24,23.01l-2.09-4.6h-.06l-2.12,4.6h4.26Z"/><rect class="cls-3" x="164.07" y="2.91" width="18.77" height="31.5"/><path class="cls-4" d="M170.79,6.9c0,.68-.41,1.13-1.08,1.13s-1.08-.46-1.08-1.13.41-1.13,1.08-1.13,1.08.46,1.08,1.13Z"/><path class="cls-4" d="M178.29,8.87v2.44l-5.59,3.66h5.59v2.29h-9.43v-2.4l5.61-3.68h-5.61v-2.31h9.43Z"/><path class="cls-4" d="M178.29,18.33v6.24h-2.04v-3.93h-1.7v3.63h-2.01v-3.63h-1.7v4.1h-1.98v-6.41h9.43Z"/><path class="cls-4" d="M176.24,27.08v-2.11h2.04v6.57h-2.04v-2.14h-7.39v-2.33h7.39Z"/></g></svg>